<svg xmlns="http://www.w3.org/2000/svg" viewBox="0 0 480 80"><title>title</title><g id="base"><rect x="-2.07" width="480" height="80" style="fill:#fff;opacity:0"/></g><g id="堪忍袋の緒を締めろ_" data-name="堪忍袋の緒を締めろ!"><path d="M45.84,55.81H38.69a.54.54,0,0,1,.39.51c0,.55-.63.8-1.16,1V60.5c0,.71.24,1.06,1,1.06h.87c1.15,0,1.82-2.77,2.54-5.7l.48.1-.09,4.94c0,.36.09.46.76,1a2.94,2.94,0,0,1,.87,2.27,2.44,2.44,0,0,1-2.55,2.67H36c-1,0-3.41,0-3.41-3.68V55.81h-1c-.2,8-4.9,11.65-7.35,13.11v2.52H38.6l2.59-3.38a1.12,1.12,0,0,1,.81-.45,1.14,1.14,0,0,1,.82.45L46,70.93a1.19,1.19,0,0,1,.48.91.74.74,0,0,1-.82.71H24.24v.9c0,1.41-3.26,1.92-3.89,1.92-1.72,0-1.72-.66-1.72-1.31V57.83c-2.07,1.51-11.14,8-13,9.32-.38,1.21-.57,1.67-1.1,1.67-.38,0-.53-.36-.62-.76L2,60.2c.91-.2,4.94-1.06,5.76-1.26V42.76H2L1.44,41.6H7.73V29.05l6.62.81c.44.05,1.06.15,1.06.75,0,.86-1,1.21-1.68,1.51V41.6h.53l2.06-2.87c.19-.25.34-.51.77-.51a1.18,1.18,0,0,1,.77.41l2.93,2.67V37.11H15.27L14.69,36h6.1V29.1l6.14.61c.82.1,1.06.3,1.06.8,0,.71-.63,1-1.54,1.36V36h7.06V28.85l6.33.55c.77.05.87.36.87.76,0,.91-.63,1.11-1.44,1.46V36l2-2.88a.83.83,0,0,1,.76-.45,1.22,1.22,0,0,1,.82.45l2.26,2.37a1.61,1.61,0,0,1,.43.91.73.73,0,0,1-.82.7H39.27V54.65h.33l2.12-3.17a.86.86,0,0,1,.76-.45,1.24,1.24,0,0,1,.87.45l2.83,2.72a1.38,1.38,0,0,1,.48,1C46.66,55.61,46.18,55.81,45.84,55.81ZM20.79,42.66a1.13,1.13,0,0,1-.48.1H13.73V57.53l4.9-1.16v-.56h-3.8l-.57-1.16h6.53Zm3.45,13.15V66.3c1.2-2.37,1.83-4.44,1.92-10.49Zm9.27-18.7H26.45V42h7.06Zm0,6H26.45v5.09h7.06Zm0,6.25H26.45v5.24h7.06Z" style="fill:#003"/><path d="M57.31,71.44a3.11,3.11,0,0,1-3.17-3.13c0-1.91.92-2.52,3.75-4.33a6.88,6.88,0,0,0,3.36-6.25l.48,0a10,10,0,0,1,1.1,4.94C62.83,65.29,61.63,71.44,57.31,71.44ZM91.4,36.61c-.15,9.58-.63,19.25-8.21,19.25-.44,0-1.11,0-1.11-.65,0-.2.15-1,.15-1.16,0-2.62-2.84-3.18-5.72-3.73v-.55c.48,0,3.41.25,4,.25,2,0,3.88-.1,4.7-4.39.58-3.12.72-6.15.58-12.45H75.51a.9.9,0,0,1,.43.81c0,1-.87,1.21-1.39,1.36-.34,1.87-.44,2.42-.82,3.93,1.15.71,4.9,3.23,4.9,6.45a3.76,3.76,0,0,1-3.56,3.73c-1,0-1.53-.4-2.35-1.81-.57-1-.91-1.56-1.2-2.07-3.6,8.17-12.62,10.79-15.79,11.69l-.19-.5c7.92-5.69,11-11.34,11.9-15.82a16.51,16.51,0,0,0-8.54-4.24v-.5c.57-.05,2.11-.2,3.55-.2a20.32,20.32,0,0,1,5.42.65c0-1.31,0-2.77,0-3.48H56.26l-.58-1.11h30l1.4-1.46c.62-.65.91-.7,1.39-.7a2.07,2.07,0,0,1,1.39.5l2.69,2.22a1.66,1.66,0,0,1,.72,1.21C93.27,34.49,92,36,91.4,36.61ZM81.46,74H70.08c-5.18,0-5.18-3.28-5.18-5.75V56.57l6.67.76c.38.05,1.06.1,1.06.85s-.2.71-1.83,1.46v6.2c0,1.11,0,2.22,2.5,2.22h6.77c1.92,0,2.4-.55,4.27-7l.48.06L84.53,67c0,.71.14.86,1.06,1.66a3,3,0,0,1,1,2.37C86.55,74,83.52,74,81.46,74ZM77.33,63.73a2.66,2.66,0,0,1-2.5-2.42c-.24-3.53-.33-5.09-4.17-8.12l.24-.5c4.17.3,10,1.71,10,7A3.85,3.85,0,0,1,77.33,63.73Zm14.26,7.81c-2,0-2.59-1.31-2.74-3.38a13.05,13.05,0,0,0-4.61-9.88l.05-.5c6.29.7,10.95,4.79,10.95,9.47C95.24,70.53,93.17,71.54,91.59,71.54Z" style="fill:#003"/><path d="M146.5,56h-9.36l5.57,3.53c.29.2.72.46.72,1,0,.86-.82.86-2.55.86-2.88,1.31-4.46,2-7,2.92a31.92,31.92,0,0,0,12.92,4.84v.55c-1.83,1-3.65,2-3.8,5.09a.66.66,0,0,1-.72.76c-.19,0-6.24-1.26-11.71-7.61-5.52,2.47-11.14,4.64-16.8,6.6a1,1,0,0,1-1.11.91c-.43,0-.72-.35-.91-.81l-2.35-6.25c2.54-.1,3.89-.25,5.71-.45V64.63a37,37,0,0,1-11.76,4l-.19-.51c5.57-2.47,10.51-7.61,13.44-12.15H104.3l-.57-1.1h19V48.35l6.14.61c.48,0,1.16.25,1.16.86s-.2.75-1.4,1.56v3.53h10.76l1.53-2.22a23.44,23.44,0,0,1-14.78-12.6l-7.25.6-.67-1.06,7.44-.65a23.53,23.53,0,0,1-1.78-9.32l6.34.85c1,.15,1.49.3,1.49,1.11a1,1,0,0,1-.63.91,2.76,2.76,0,0,0-.67.45,15.75,15.75,0,0,0,1.34,5.5l6.73-.61,1.87-3.33a.88.88,0,0,1,.81-.55c.29,0,.48.15.82.4l3.55,2.47a1,1,0,0,1,.53.91c0,.5-.38.66-.77.71l-12.91,1.1c2.35,3.94,8.26,7,9.6,7,1.73,0,2.3-1.36,4-6.35l.48.1c-.14,1-.86,6.45-.86,7s.09.65.72,1.46a3.61,3.61,0,0,1,.57,2,2.36,2.36,0,0,1-1.77,2.37l1.82,1.41a1.35,1.35,0,0,1,.39.86C147.32,55.86,146.88,56,146.5,56ZM120.1,34.24a51.92,51.92,0,0,1-3.65,4.29c.29.15.86.55.86,1s-.29.86-1.39,1.87v9.93c0,2.27-4.51,2.47-4.61,2.47-1,0-1-.61-1-1.11V44.07a17.66,17.66,0,0,1-6.53,2.82l-.24-.45c5.71-4.44,9.31-13,9.79-16.63l7.59,2.47c.52.15,1,.4,1,.95S121.39,34,120.1,34.24ZM125.76,57A54.18,54.18,0,0,1,120.91,61v6.4c2.45-.2,4.13-.35,8.55-.9A21.13,21.13,0,0,1,125.76,57Zm1.06-1c1,3,3.5,5.4,4.89,6.61A30.07,30.07,0,0,0,135.94,56ZM136.9,37.06c-1.44,0-1.73-.85-2.5-3s-1.82-2.67-2.4-2.92v-.56a13,13,0,0,1,2.26-.25c3.6,0,5.33,2.07,5.33,4.08A2.74,2.74,0,0,1,136.9,37.06Z" style="fill:#003"/><path d="M172.94,69.88c3-.61,13.91-4,13.91-19,0-11.79-8.85-13.4-11.79-13.4a11.34,11.34,0,0,0-1.81.15,5.44,5.44,0,0,1,1.38,3.73c0,2.62-1.77,15.57-8.73,24-1.21,1.46-2.46,3-3.8,3s-2.07-1.16-2.2-2.57c-.22-1.81-.31-2.47-1-3.27-1.64-1.92-2.34-2.78-2.34-6.45,0-9.73,7.26-20.57,19-20.57,10.85,0,16.12,8.67,16.12,18,0,16.53-16.33,16.83-16.89,16.83a10.58,10.58,0,0,1-1.95-.15Zm-12-15c0,.35.09,5.94,1.86,5.94C166,60.8,172,47,172,40.39a13.54,13.54,0,0,0-.26-2.37C164.56,40.24,160.93,48.46,160.93,54.86Z" style="fill:#003"/><path d="M216.63,56.87c-2.69,0-2.69-2.07-2.69-3.73a12.38,12.38,0,0,0-.05-1.56,10.79,10.79,0,0,1-2.11,1.16V73.6c0,1.42-2.16,1.77-3.22,1.77-1.73,0-1.82-.76-1.82-1.31v-13a1.22,1.22,0,0,1-.48.06C204.19,68,201,71.34,199.3,73l-.44-.25c1.73-4.29,2.21-10.49,2.36-14.22l5,1a1.77,1.77,0,0,1,.48.15V55.16c-1.35.65-2.45,1.11-3.8,1.66-.52,1.26-.57,1.41-1,1.41s-.53-.3-.72-1.11l-1.54-6.3c2.11,0,2.11,0,3.94,0a26.73,26.73,0,0,0,3.88-4.48,5,5,0,0,1-1.15.15c-2.49,0-2.64-1.26-2.83-5a7.76,7.76,0,0,0-3.79-5.24l.14-.51a12.55,12.55,0,0,1,5.91,1.57,48.68,48.68,0,0,0,1.34-7.92l7.39,2.17c.34.1.68.25.68.65,0,1-1.35,1.06-1.92,1.06a34.75,34.75,0,0,1-5.62,5.2,5.15,5.15,0,0,1,2,4.33,23,23,0,0,0,2.64-5.8l6.33,2.62c.43.16.67.41.67.81,0,1-.76.91-2,.91a37.31,37.31,0,0,1-5.09,4.68,16.84,16.84,0,0,1,5,3.08,5.48,5.48,0,0,1,2.11,4.43C219.36,54.3,219.22,56.87,216.63,56.87Zm-5.53-10c-1.29,1.11-2.44,2-4.84,3.73a66.85,66.85,0,0,0,7.25-.6A6.9,6.9,0,0,0,211.1,46.89Zm32-.3H235.4a38,38,0,0,1-6.34,6.4h5.18l1.44-2a1.09,1.09,0,0,1,1-.6,1.51,1.51,0,0,1,.87.25l3.93,3.08a1.18,1.18,0,0,1,.48.85A4.63,4.63,0,0,1,240.63,57V72.65c0,.55,0,1.06-.48,1.41a8.56,8.56,0,0,1-3.94,1.11c-.86,0-1.68-.31-1.68-1.21V72.6h-8.88v1c0,.71,0,.76-1.15,1.26a8.45,8.45,0,0,1-2.79.61c-1.82,0-1.82-.46-1.82-1.41V58.54a30.18,30.18,0,0,1-3.22,1.3,8.66,8.66,0,0,1,2.21,5.55c0,1-.19,3.93-3,3.93a2.35,2.35,0,0,1-2.4-2.62c0-.55.19-3.08.19-3.58a11.76,11.76,0,0,0-1.54-6.5l.34-.35a14.41,14.41,0,0,1,3.41,2.67c1.53-1,2.44-1.61,4-2.67V50.62l4.75,1.87a23,23,0,0,0,5.14-5.9H215.14l-.58-1.16h8.88v-8h-6.38l-.58-1.16h7V29.45l6.39.61c.52.05,1,.1,1,.65,0,.76-1,1.26-1.44,1.47v4.08h.24l1.82-2.72a.89.89,0,0,1,.82-.51,1.32,1.32,0,0,1,.81.46l1.83,2.31c.43-1.31,1.29-3.78,1.34-3.88l7,3.13a.85.85,0,0,1,.53.8c0,.86-.72.86-2.21.86a54.12,54.12,0,0,1-5.28,8.72h1.1l2-2.47c.24-.3.38-.5.77-.5.19,0,.38,0,.86.45l2.4,2.07a1.28,1.28,0,0,1,.48,1C243.89,46.44,243.46,46.59,243.08,46.59Zm-8.55,7.51h-7c-1.1.81-1.44,1-1.92,1.31v6.65h8.88Zm0,9.07h-8.88v8.27h8.88Zm-5.18-25.75v8h1.1a56.7,56.7,0,0,0,3.79-8Z" style="fill:#003"/><path d="M274.08,49.06a7.62,7.62,0,0,0-1.77,4.54c1-.41,5.18-2.12,6.05-2.52.19,0,1.53-.66,1.53-1.62a1.58,1.58,0,0,0-.62-1.11c-.19-.15-.39-.3-.39-.45s.58-.35.82-.35c2.74,0,5.86,2.57,5.86,5.44,0,1.31-1.35,1.31-1.83,1.31a25.17,25.17,0,0,0-11.52,2.17c0,.6,0,1.46,0,2.82.05.66.24,3.63.24,4.23,0,1.77-1.25,3-2.26,3a3.14,3.14,0,0,1-2.64-3.18c0-.75.44-4.13.48-4.84-4.65,2.57-6.57,4.59-6.57,6.86,0,3.48,3.5,4.28,7.05,4.28,2.16,0,2.6-.15,8.5-1.31a4.73,4.73,0,0,1,1.11-.1c1.53,0,3.6,1.26,3.6,2.67a2.47,2.47,0,0,1-1.3,2.07c-1.68.81-7.39,1-9.36,1-8.59,0-11.62-3.68-11.62-7.06,0-4,2.26-7.46,8.59-11.09-.19-2.42-.76-5.29-3.5-5.29-4,0-6.62,6.45-7.34,8.32-.39,1-.77,2.06-2,2.06S253,60,253,57.83c0-2.77.82-3.48,1.73-4.29,2-1.76,3.31-4.18,5.71-9.12a26.07,26.07,0,0,1-3,.2,5.63,5.63,0,0,1-5.8-4c0-.1,0-.3.19-.3s.67.5.81.55a6.26,6.26,0,0,0,3.56.91,27.37,27.37,0,0,0,5.95-1.21c.48-1,2.45-5.84,2.45-7.66a2.28,2.28,0,0,0-1.78-2.27c-.29-.05-.43-.1-.43-.35,0-.6,1.34-.81,2-.81,2.78,0,5.9,2.93,5.9,4.59,0,.71-.34,1-1.06,1.61s-.91,1.06-2.06,3.13a14.56,14.56,0,0,0,4.56-2.52,3,3,0,0,1,1.63-.41c1.54,0,3.51,1.06,3.51,2.37,0,.66-.39,1.21-1.59,1.82a48.62,48.62,0,0,1-10.7,3.73c-.43.9-2.64,5-2.93,5.89,1-.65,3.17-2.11,5-2.11,1.58,0,2.69.85,4.75,3.63.29-.21,1.49-1.47,1.78-1.72A2.84,2.84,0,0,1,274,49Z" style="fill:#003"/><path d="M336.2,47.14a34.82,34.82,0,0,1-5.57,3.33l-.39-.3a15.43,15.43,0,0,0,1.44-4.84h-9.5l5.42,1c.29.05.87.15.87.6,0,.71-.77,1.16-1.35,1.51v4.09h2.69l1.3-1.77a1.35,1.35,0,0,1,1-.65,1.32,1.32,0,0,1,.91.35l3,2.42a1.6,1.6,0,0,1,.58,1.21c0,.65-.24.91-1.06,1.71V65.89a4,4,0,0,1-.72,2.57A5.08,5.08,0,0,1,331,70.08c-.62,0-1.29,0-1.29-.56,0-2.82,0-3.53-2.55-4.33v8.36c0,1.52-2.3,1.92-3.5,1.92s-2.21-.35-2.21-1.36V53.65h-2.64V68.26c0,1.72-2.06,2.27-3.5,2.27s-1.64-.5-1.64-1.26v-18a3.35,3.35,0,0,1-1.39,0,6.12,6.12,0,0,1,.77,3,3,3,0,0,1-2.88,3.28c-1.82,0-1.92-1.72-2-2.77a6,6,0,0,0-.19-1.62c-.29.15-1.58.66-1.82.76v3.78l.33-.4c3.08,1.56,6.58,4.83,6.58,8.21,0,1.56-.82,3.68-2.78,3.68-1.16,0-2.45-.4-2.45-3,0-.41.19-2.22.19-2.57,0-1.92-.53-4.39-1.87-5.55V73.35c0,1.57-1.87,2-3.6,2-1.49,0-1.73-.25-1.73-1.61V62.21l-.24.1a31.59,31.59,0,0,1-6.24,10.74l-.39-.3c1.4-3.18,1.83-6.45,2.07-13.56l4.8.86V56.27c-.19.1-2.69,1.16-3.31,1.41,0,.4-.24,1.46-1,1.46-.34,0-.34-.2-.53-1l-1.49-6.55c.48-.05,2.64-.2,3.07-.25a50.17,50.17,0,0,0,3.8-4.94,2.91,2.91,0,0,1-1.25.3c-1.73,0-1.87-1.06-2.06-3.17-.2-1.77-1.54-4.89-3.94-6l.19-.51a17.67,17.67,0,0,1,5.43,1c.91-2,1.39-3.78,1.82-8.41l7.1,2.82A.57.57,0,0,1,309,33c0,1.11-1.15,1.06-1.92.91a30.56,30.56,0,0,1-5.43,5.29,6.05,6.05,0,0,1,2,3.28,41.43,41.43,0,0,0,2.5-5.8l6,3.08c.33.15.53.35.53.65,0,.81-1,.91-2,1a39.79,39.79,0,0,1-4.37,4.74,10.35,10.35,0,0,1,3.79,2.41c.1-1.25.19-1.25,2.35-2.67,1.49-.95,1.92-2.06,1.73-4.63h.53a23.68,23.68,0,0,1,1.39,3h2c-.48-.65-.48-.86-.53-2.62a6.72,6.72,0,0,0-3-5.39h-4.17l-.58-1.16h11.71v-5.8l6.44.56a.75.75,0,0,1,.77.8c0,.51-.29.76-1.49,1.31v3.13h3.45l2.6-3c.28-.3.48-.55.91-.55a1.38,1.38,0,0,1,.86.4l3,2.73a1.08,1.08,0,0,1,.48.9c0,.51-.48.66-.87.66h-9.26l5.33,2c.72.26,1,.36,1,.81,0,.81-1,.76-1.68.71a39.28,39.28,0,0,1-5.47,4.48h4.08l1.68-1.86a1.36,1.36,0,0,1,1.06-.61,1.75,1.75,0,0,1,.81.35l2.93,2.27a1.62,1.62,0,0,1,.67,1.31C338.88,47.45,336.72,47.19,336.2,47.14Zm-31.06,0c-1.49,1.27-3,2.52-5.09,4,2.45-.21,4.66-.36,7.15-.56A13,13,0,0,0,305.14,47.19Zm16.27-1.86h-5a6.3,6.3,0,0,1,.14,1.61c0,.46,0,2.83-1.53,3.83l4,1.72h2.45Zm-3.7-9.12c4.37,2.17,5.38,3.27,5.38,5.59a3.87,3.87,0,0,1-.72,2.42h3.51a24.39,24.39,0,0,0,1.77-8Zm12.53,17.44h-3.12V64.13a11.55,11.55,0,0,0,1.3.1c1.25,0,1.82-.15,1.82-1.61Z" style="fill:#ff530d"/><path d="M364.32,71.34c12.87-3.23,14.5-12.6,14.5-16,0-1.92-.58-6.75-3.6-9.22a10.33,10.33,0,0,0-5.52-2.27c-3.55,8.92-4.61,11.59-7.44,15.92,1.77,2.78,2.35,3.63,2.54,3.94a3.57,3.57,0,0,1,.63,1.76c0,.05-.05,2.27-1.73,2.27s-2.5-1.06-4.56-3.93c-.87,1-3.41,3.68-4.9,5A6.28,6.28,0,0,1,351,70.33a2.39,2.39,0,0,1-2.45-2.17c0-2.47,0-2.72-.72-3.78a3.33,3.33,0,0,1-.87-2.72c0-5,3.08-9.88,5.57-12.8-.48-1.87-1-4.39-1.2-5.4a25,25,0,0,0-2.4-7.3,1.63,1.63,0,0,1-.24-.81c0-.15.15-.2.24-.2a8.62,8.62,0,0,1,5.76,5.49c.24.81,1,4.44,1.2,5.19a21.8,21.8,0,0,1,9.84-3.78,41.21,41.21,0,0,0,.77-5.69,3.06,3.06,0,0,0-2.06-2.92c-.53-.26-.58-.31-.58-.46s.34-.91,2.31-.91c4.08,0,7.05,3.38,7.05,4.34a3,3,0,0,1-.81,1.41A29.11,29.11,0,0,0,370.47,42c10.32,1.16,13.63,8.77,13.63,14.52,0,2.11-.34,10.58-10.85,14.06a28.62,28.62,0,0,1-8.93,1.26Zm-10.85-18.7a17,17,0,0,0-2.2,8.06c0,1.36.57,4.18,2.16,4.18,1.15,0,3-2.36,4-3.67A30,30,0,0,1,353.47,52.64Zm3.08-4.18a23.65,23.65,0,0,0,3.79,8.41c2.21-3.58,3.55-7.41,5-13A14,14,0,0,0,356.55,48.46Z" style="fill:#003"/><path d="M405.27,72.34c8.25-.5,17.71-3.93,17.71-12.19,0-4.49-3.36-8.42-7.54-8.42-1.77,0-9.26.86-15.41,11-.43.7-1,1.56-1.92,1.56-1.44,0-2.59-1.91-2.59-4,0-2.62,1.1-3.38,2.83-4.54,2-1.36,6.44-6.4,8.84-9.17,1.68-1.92,4.8-5.44,7.87-8.52.43-.45,1-1,1-1.26s-.19-.2-.24-.2a51.64,51.64,0,0,0-10,4.54c-.53.35-.72.5-1,.5-2,0-5.33-3.68-5.33-7.26,0,0,0-1.26.48-1.26.24,0,.29.1.86,1.31a3.81,3.81,0,0,0,3.41,2.07c1.49,0,9.22-2.07,11.23-3.68a3.51,3.51,0,0,1,2.36-1.11c2.3,0,5.08,4.59,5.08,5.8,0,1-.47,1.26-1.29,1.51-4.61,1.51-15.55,13.61-16.08,14.36,4.85-3,8-3.88,11.23-3.88,5.43,0,11.81,3.33,11.81,10.44,0,3-1,6.65-5.28,9.77-4.51,3.33-12.34,3.33-13.78,3.33-1.82,0-3-.1-4.17-.2Z" style="fill:#003"/><path d="M449,72.14a3.7,3.7,0,0,1-3.61-3.83A3.63,3.63,0,1,1,449,72.14Zm2.73-27.67a57.91,57.91,0,0,0-1.92,16h-1.58a58.32,58.32,0,0,0-1.92-16,19.7,19.7,0,0,1-.87-5.39c0-4.23,2.45-4.69,3.56-4.69,3.59,0,3.59,4,3.59,4.79A20.22,20.22,0,0,1,451.68,44.47Z" style="fill:#003"/></g><g id="野村政行の"><g style="opacity:0.8"><path d="M7.11,15.05c-.66,0-1.26,0-1.68,0,0-.56.08-1.17.08-1.78V8.87a12.48,12.48,0,0,0-.08-1.65c.6,0,1.16.07,1.92.07h4.94a17.9,17.9,0,0,0,1.84-.07c0,.46-.06.91-.06,1.67V13.5a14.74,14.74,0,0,0,0,1.6c-.38,0-.92,0-1.6,0H10.73v1.47h1.78a12.25,12.25,0,0,0,1.84-.09v1.9a12,12,0,0,0-1.84-.09H10.73v1.58c1.44-.2,2-.29,3.65-.61l0,1.65c-2.91.62-4.45.87-7.09,1.23-1.36.18-1.5.2-2.1.32l-.42-2.09a35,35,0,0,0,4-.27V18.24H7a16.52,16.52,0,0,0-1.82.09v-1.9A16,16,0,0,0,7,16.52h1.8V15.05ZM7.27,9v1.38H8.83V9Zm0,3v1.44H8.83V12Zm3.46-1.61h1.6V9h-1.6Zm0,3h1.6V12h-1.6ZM20.7,12l-1,.92h1a12.36,12.36,0,0,0,1.64-.07L23.5,14c-.22.41-.24.45-.46.88a14.6,14.6,0,0,1-2,3.09,9.41,9.41,0,0,0-1.62-1,9.93,9.93,0,0,0,1.64-2.23H19.3v6.45c0,1.36-.62,1.76-2.78,1.76-.34,0-.8,0-1.5,0A5.5,5.5,0,0,0,14.53,21a17.77,17.77,0,0,0,2,.18c.48,0,.64-.11.64-.43v-6h-.94a12.75,12.75,0,0,0-1.8.09V12.78a12.23,12.23,0,0,0,1.8.09h2.5a22.29,22.29,0,0,0-3.57-2.12l1.15-1.28c1,.48,1.32.64,1.94,1a9.66,9.66,0,0,0,1.54-1.36H16.68a16.14,16.14,0,0,0-1.8.09v-2a14.82,14.82,0,0,0,1.94.09h3.24A12.36,12.36,0,0,0,21.7,7.2l1.16,1.19c-.32.34-.46.52-.78.88a17.38,17.38,0,0,1-2.2,2.16Z" style="fill:#003"/><path d="M28.63,8.28a8.7,8.7,0,0,0-.12-1.75h2.34a10.75,10.75,0,0,0-.12,1.77V9.83h.66a14,14,0,0,0,1.74-.11v2c-.58,0-1.12-.09-1.7-.09h-.66a13.92,13.92,0,0,0,2.88,3.62A6.58,6.58,0,0,0,32.57,17a13.38,13.38,0,0,1-1.94-2.94,18.67,18.67,0,0,1,.1,2.63v4.43a12.85,12.85,0,0,0,.12,2H28.53a12.75,12.75,0,0,0,.12-1.94V17.59a21.88,21.88,0,0,1,.12-2.69,16.24,16.24,0,0,1-2.7,4.54A7,7,0,0,0,25,17.55a18.31,18.31,0,0,0,3.52-6h-1c-.76,0-1.3,0-1.92.09v-2a16.14,16.14,0,0,0,1.94.11h1.18ZM41.4,20.83c0,1-.28,1.51-.92,1.74a6.58,6.58,0,0,1-2.22.22c-.52,0-.7,0-2.09-.07a5.21,5.21,0,0,0-.6-2l.6.07a19.88,19.88,0,0,0,2.23.15c.66,0,.82-.09.82-.51V11.74H35.77a20.18,20.18,0,0,0-2.24.1v-2a16.24,16.24,0,0,0,2.22.11h3.47V8.71a12.5,12.5,0,0,0-.14-2.11h2.44a15.74,15.74,0,0,0-.12,2.13V10h.14a12.5,12.5,0,0,0,1.94-.11v2a17.84,17.84,0,0,0-1.88-.07h-.2Zm-5.28-2.49a15.77,15.77,0,0,0-2.51-4.55L35.5,13A16.18,16.18,0,0,1,38,17.28Z" style="fill:#003"/><path d="M64,11.16c-.44,0-.8-.06-1.54-.07a13.73,13.73,0,0,1-2.36,7A11.92,11.92,0,0,0,64.32,21a6.51,6.51,0,0,0-1.24,2,15.3,15.3,0,0,1-4.34-3.33A17.68,17.68,0,0,1,53.67,23a5.72,5.72,0,0,0-1.36-1.78,13.11,13.11,0,0,0,5.17-3.15,12.87,12.87,0,0,1-1.75-3.6,7.61,7.61,0,0,1-1.16,1.42,5.11,5.11,0,0,0-1-1.19c-.36,0-.58,0-1.2,0h-.54V18.6c.66-.2,1.16-.36,2.6-.83l0,2a76.31,76.31,0,0,1-7.78,2.18l-.54.14-.3.07L45.35,20c.56-.06.68-.06,1.22-.15v-6a11.29,11.29,0,0,0-.12-2.09h2.18a14.92,14.92,0,0,0-.1,2.07v5.65c.6-.12.74-.16,1.22-.29V9.47H47.87a17.6,17.6,0,0,0-2,.1v-2A18,18,0,0,0,48,7.72h4.82c.88,0,1.48,0,2.08-.09V9.56a10.35,10.35,0,0,0-1.68-.09H51.83v3.38h.54a9.85,9.85,0,0,0,1.48-.07v.86a13.16,13.16,0,0,0,2.36-5.22,10.67,10.67,0,0,0,.38-2.19l2.29.34a5.29,5.29,0,0,0-.22.74c-.1.43-.1.43-.54,2H62a14.14,14.14,0,0,0,2-.11Zm-6.44-.07A13.44,13.44,0,0,1,57,12.4a11.26,11.26,0,0,0,1.74,4.09A14.19,14.19,0,0,0,60,13.21a9.53,9.53,0,0,0,.3-2.12Z" style="fill:#003"/><path d="M68.73,17.66c0-.76,0-.87,0-2.09A9.45,9.45,0,0,1,67,17.1a8,8,0,0,0-1-1.93,13.48,13.48,0,0,0,4.92-4.75l1.88,1.12a6.43,6.43,0,0,0-.66.79c-.46.59-.64.83-1.16,1.4v7.1a14,14,0,0,0,.14,2.27H68.59a14.08,14.08,0,0,0,.14-2.29ZM72.45,7.59l-.6.62a18.76,18.76,0,0,1-4.6,3.6A8.07,8.07,0,0,0,66,10.11a12.5,12.5,0,0,0,3.58-2.46,6.38,6.38,0,0,0,1-1.26Zm2.7,6.2a21.5,21.5,0,0,0-2.46.11v-2a23.24,23.24,0,0,0,2.46.11H82a19.84,19.84,0,0,0,2.44-.11v2A20.93,20.93,0,0,0,82,13.79h-.86V21c0,1.55-.58,1.93-3,1.93-.68,0-1.28,0-2.22-.05a6.68,6.68,0,0,0-.59-2,25.42,25.42,0,0,0,2.73.2c.8,0,.9,0,.9-.43V13.79ZM73.49,7.31a19.77,19.77,0,0,0,2.34.1h5.41a19.53,19.53,0,0,0,2.28-.1v2c-.7-.07-1.44-.1-2.24-.1H75.83c-.83,0-1.68,0-2.34.1Z" style="fill:#003"/><path d="M95,17.44c-1.14,2.33-2.42,3.39-4.06,3.39-2.28,0-3.92-2.09-3.92-5a7.32,7.32,0,0,1,2.2-5.24,9.48,9.48,0,0,1,6.88-2.52c4.81,0,7.93,2.63,7.93,6.68a7,7,0,0,1-4.86,6.72,13.93,13.93,0,0,1-3.14.75,5.55,5.55,0,0,0-1.23-2.1,11.77,11.77,0,0,0,4-1,5,5,0,0,0,2.78-4.51,4.38,4.38,0,0,0-2.46-4,4.62,4.62,0,0,0-2-.54A23.69,23.69,0,0,1,95,17.44ZM92.07,11a5.85,5.85,0,0,0-2.72,4.86c0,1.47.7,2.65,1.58,2.65.66,0,1.34-.76,2.06-2.31a21.79,21.79,0,0,0,1.66-6.09A5.38,5.38,0,0,0,92.07,11Z" style="fill:#003"/></g><g style="opacity:0.8"><path d="M314.68,17a9.45,9.45,0,0,0-.14,1.46c-.05,1-.12,3.19-.12,4,0,1,.07,1.42.31,1.74a2,2,0,0,0,1.61.56,3.09,3.09,0,0,0,2.9-1.85,6.32,6.32,0,0,0,.55-1.81,5.36,5.36,0,0,0,1.45.83,6.33,6.33,0,0,1-1.42,2.76,4.82,4.82,0,0,1-3.6,1.37,4.16,4.16,0,0,1-2.1-.48c-.83-.49-1.17-1.33-1.17-2.77,0-.56,0-1.65.09-4.36,0-.32,0-.55,0-.7a5.74,5.74,0,0,0,0-.73Z" style="fill:#5b5b5b"/></g></g></svg>